<?xml version="1.0" encoding="UTF-8"?>
<svg id="Capa_1" data-name="Capa 1" xmlns="http://www.w3.org/2000/svg" viewBox="0 0 237.45 55.28">
  <defs>
    <style>
      .cls-1 {
        fill: #fff;
      }

      .cls-1, .cls-2, .cls-3, .cls-4 {
        fill-rule: evenodd;
      }

      .cls-2, .cls-5 {
        fill: #c63838;
      }

      .cls-3 {
        fill: #f67a21;
      }

      .cls-6, .cls-4 {
        fill: #004f70;
      }
    </style>
  </defs>
  <path class="cls-1" d="M33.58,23.91c-4.33.82-7.24,3.63-8.25,8.34-.2,1.71-2.15,1.69-2.07,0,.95-6.11,4.65-9.5,10.32-10.08,1.18-.14,1.42,1.45,0,1.74"/>
  <path class="cls-2" d="M45.72,18.83c-2.05,0-3.99.48-5.74,1.33-1.76-.85-3.7-1.33-5.74-1.33-7.81,0-14.13,6.88-14.13,15.38s6.33,21.08,14.13,21.08c2.04,0,3.99-.86,5.74-2.29,1.75,1.43,3.7,2.29,5.74,2.29,7.81,0,14.13-12.59,14.13-21.08s-6.33-15.38-14.13-15.38"/>
  <path class="cls-4" d="M49.94,15.34c2.75-2.31,4.23-5.57,4.35-8.9-3.3-.45-6.77.44-9.52,2.75-2.75,2.31-4.22,5.57-4.35,8.9,3.3.45,6.77-.44,9.51-2.75M38.76,16.04c.65-1.69.6-3.64-.29-5.39-.89-1.74-2.44-2.93-4.18-3.4-.64,1.69-.6,3.64.29,5.39.89,1.74,2.44,2.93,4.19,3.4Z"/>
  <path class="cls-3" d="M2.15,0h24.71c1.18,0,2.15.97,2.15,2.15v11.71c0,1.18-.97,2.15-2.15,2.15h-.33v3.02s-4.47-3.02-4.47-3.02H2.15c-1.18,0-2.15-.97-2.15-2.15V2.15C0,.97.97,0,2.15,0"/>
  <g>
    <path class="cls-6" d="M86.16,46.36h-3.46v-15.25l-5.26,11.12h-2.56l-5.38-11.12v15.25h-3.46v-22.82h3.46l6.67,14.2,6.54-14.2h3.46v22.82Z"/>
    <path class="cls-6" d="M102.44,39.18h-10.54c0,1.41.36,2.52,1.07,3.33.72.81,1.74,1.22,3.06,1.22.88,0,1.6-.13,2.18-.38.58-.26,1.17-.68,1.76-1.28l2.08,1.96c-.88.88-1.77,1.52-2.68,1.92s-2.05.61-3.41.61c-2.22,0-4-.66-5.32-1.99-1.33-1.32-1.99-3.44-1.99-6.35,0-2.61.62-4.64,1.86-6.1s2.92-2.2,5.03-2.2,3.82.72,5.05,2.15c1.23,1.43,1.84,3.32,1.84,5.67v1.44ZM99.2,36.91c-.02-.85-.17-1.59-.45-2.21-.58-1.37-1.65-2.05-3.2-2.05-.75,0-1.41.19-1.99.56-.58.37-.99.87-1.25,1.49-.26.58-.4,1.31-.42,2.21h7.31Z"/>
    <path class="cls-6" d="M111.35,46.36h-1.95c-1.43,0-2.53-.44-3.3-1.31-.77-.88-1.15-1.94-1.15-3.2v-8.94h-1.86v-2.5h1.86v-4.94h3.27v4.94h3.14v2.5h-3.14v8.78c0,1.26.6,1.89,1.79,1.89h1.35v2.79Z"/>
    <path class="cls-6" d="M125.16,46.36h-3.21v-1.47c-.6.6-1.22,1.03-1.88,1.28-.65.26-1.47.38-2.45.38-1.92,0-3.38-.49-4.36-1.47-.85-.9-1.28-2.06-1.28-3.49s.48-2.54,1.44-3.4c.96-.85,2.35-1.28,4.17-1.28h4.29v-1.15c0-1.05-.28-1.82-.85-2.31-.57-.49-1.47-.74-2.71-.74-.9,0-1.6.12-2.12.35-.51.24-.99.64-1.44,1.22l-2.15-2.02c.75-.88,1.56-1.48,2.44-1.83.88-.34,2.01-.51,3.4-.51,4.47,0,6.7,1.86,6.7,5.58v10.86ZM121.89,40.5v-1.31h-3.81c-1.94,0-2.92.78-2.92,2.34s.99,2.31,2.98,2.31c1.39,0,2.4-.31,3.04-.93.47-.47.71-1.27.71-2.4Z"/>
    <path class="cls-5" d="M144.58,34.79c0,2.69-.12,4.56-.35,5.61-.34,1.58-.99,2.85-1.95,3.81-1.43,1.43-3.4,2.15-5.9,2.15h-8.01v-22.82h8.01c2.5,0,4.47.72,5.9,2.15.73.73,1.27,1.61,1.63,2.66s.57,1.94.61,2.68c.04.74.06,1.8.06,3.19v.58ZM141.12,34.79c0-1.28-.02-2.25-.05-2.9-.03-.65-.14-1.33-.32-2.04-.18-.71-.46-1.26-.85-1.67-.94-1.03-2.23-1.54-3.88-1.54h-4.2v16.6h4.2c1.65,0,2.94-.51,3.88-1.54.53-.6.87-1.42,1.01-2.45.14-1.04.21-2.53.21-4.47Z"/>
    <path class="cls-5" d="M159.9,38.22c0,1.5-.14,2.75-.42,3.75-.28,1-.78,1.89-1.51,2.66-1.24,1.28-2.86,1.92-4.87,1.92s-3.6-.64-4.84-1.92c-.73-.77-1.23-1.66-1.51-2.66-.28-1-.42-2.25-.42-3.75s.14-2.72.42-3.73.78-1.9,1.51-2.64c1.24-1.28,2.85-1.92,4.84-1.92s3.63.64,4.87,1.92c.73.75,1.23,1.63,1.51,2.64.28,1.01.42,2.26.42,3.73ZM156.63,38.22c0-2.22-.37-3.71-1.12-4.45-.62-.62-1.42-.93-2.4-.93s-1.75.31-2.37.93c-.75.75-1.12,2.23-1.12,4.45s.37,3.71,1.12,4.45c.64.64,1.43.96,2.37.96s1.76-.32,2.4-.96c.75-.75,1.12-2.23,1.12-4.45Z"/>
    <path class="cls-5" d="M173.87,44.25c-1.45,1.54-3.24,2.31-5.35,2.31-.96,0-1.86-.16-2.69-.46s-1.6-.78-2.29-1.41c-.7-.63-1.25-1.5-1.65-2.6-.41-1.1-.61-2.39-.61-3.86s.2-2.76.61-3.86c.41-1.1.96-1.97,1.65-2.6.69-.63,1.46-1.09,2.29-1.39s1.73-.45,2.69-.45c2.14,0,3.92.76,5.35,2.28l-2.24,2.18c-.51-.56-1-.95-1.46-1.19-.46-.23-1.01-.35-1.65-.35-1.28,0-2.29.48-3.01,1.44-.64.81-.96,2.13-.96,3.94s.32,3.16.96,3.97c.73.96,1.73,1.44,3.01,1.44.64,0,1.19-.12,1.65-.35.46-.23.95-.63,1.46-1.19l2.24,2.15Z"/>
    <path class="cls-5" d="M187.81,39.18h-10.54c0,1.41.36,2.52,1.07,3.33.72.81,1.74,1.22,3.06,1.22.88,0,1.6-.13,2.18-.38.58-.26,1.17-.68,1.76-1.28l2.08,1.96c-.88.88-1.77,1.52-2.68,1.92s-2.05.61-3.41.61c-2.22,0-4-.66-5.32-1.99-1.33-1.32-1.99-3.44-1.99-6.35,0-2.61.62-4.64,1.86-6.1s2.92-2.2,5.03-2.2,3.82.72,5.05,2.15c1.23,1.43,1.84,3.32,1.84,5.67v1.44ZM184.57,36.91c-.02-.85-.17-1.59-.45-2.21-.58-1.37-1.65-2.05-3.2-2.05-.75,0-1.41.19-1.99.56-.58.37-.99.87-1.25,1.49-.26.58-.4,1.31-.42,2.21h7.31Z"/>
    <path class="cls-5" d="M203.1,46.36h-3.27v-9.9c0-1.22-.3-2.13-.9-2.72-.6-.6-1.39-.9-2.37-.9s-1.79.3-2.42.91c-.63.61-.95,1.51-.95,2.71v9.9h-3.27v-16.25h3.21v1.63c1.13-1.22,2.57-1.83,4.33-1.83,1.65,0,2.98.49,4.01,1.47,1.09,1.07,1.63,2.6,1.63,4.58v10.38Z"/>
    <path class="cls-5" d="M217.68,44.25c-1.45,1.54-3.24,2.31-5.35,2.31-.96,0-1.86-.16-2.69-.46s-1.6-.78-2.29-1.41c-.7-.63-1.25-1.5-1.65-2.6-.41-1.1-.61-2.39-.61-3.86s.2-2.76.61-3.86c.41-1.1.96-1.97,1.65-2.6.69-.63,1.46-1.09,2.29-1.39s1.73-.45,2.69-.45c2.14,0,3.92.76,5.35,2.28l-2.24,2.18c-.51-.56-1-.95-1.46-1.19-.46-.23-1.01-.35-1.65-.35-1.28,0-2.29.48-3.01,1.44-.64.81-.96,2.13-.96,3.94s.32,3.16.96,3.97c.73.96,1.73,1.44,3.01,1.44.64,0,1.19-.12,1.65-.35.46-.23.95-.63,1.46-1.19l2.24,2.15Z"/>
    <path class="cls-5" d="M222.61,26.91h-3.46v-3.46h3.46v3.46ZM222.52,46.36h-3.27v-16.25h3.27v16.25Z"/>
    <path class="cls-5" d="M237.45,46.36h-3.21v-1.47c-.6.6-1.22,1.03-1.88,1.28-.65.26-1.47.38-2.45.38-1.92,0-3.38-.49-4.36-1.47-.85-.9-1.28-2.06-1.28-3.49s.48-2.54,1.44-3.4c.96-.85,2.35-1.28,4.17-1.28h4.29v-1.15c0-1.05-.28-1.82-.85-2.31-.57-.49-1.47-.74-2.71-.74-.9,0-1.6.12-2.12.35-.51.24-.99.64-1.44,1.22l-2.15-2.02c.75-.88,1.56-1.48,2.44-1.83.88-.34,2.01-.51,3.4-.51,4.47,0,6.7,1.86,6.7,5.58v10.86ZM234.18,40.5v-1.31h-3.81c-1.94,0-2.92.78-2.92,2.34s.99,2.31,2.98,2.31c1.39,0,2.4-.31,3.04-.93.47-.47.71-1.27.71-2.4Z"/>
  </g>
  <path class="cls-1" d="M33.69,23.71c-4.33.82-7.24,3.63-8.25,8.34-.2,1.71-2.15,1.69-2.07,0,.95-6.11,4.65-9.5,10.32-10.08,1.18-.14,1.42,1.45,0,1.74"/>
</svg>