<?xml version="1.0" encoding="UTF-8"?>
<svg id="Capa_1" data-name="Capa 1" xmlns="http://www.w3.org/2000/svg" viewBox="0 0 237.45 55.28">
  <defs>
    <style>
      .cls-1 {
        fill: #fff;
      }

      .cls-1, .cls-2, .cls-3, .cls-4 {
        fill-rule: evenodd;
      }

      .cls-2, .cls-5, .cls-6 {
        fill: #c63838;
      }

      .cls-7 {
        font-family: DINPro-Medium, DINPro;
        font-size: 32.05px;
        font-weight: 500;
      }

      .cls-3 {
        fill: #f67a21;
      }

      .cls-8 {
        letter-spacing: -.07em;
      }

      .cls-8, .cls-9, .cls-4 {
        fill: #004f70;
      }

      .cls-9 {
        letter-spacing: -.07em;
      }

      .cls-5 {
        letter-spacing: -.09em;
      }

      .cls-6 {
        letter-spacing: -.07em;
      }
    </style>
  </defs>
  <path class="cls-1" d="M33.58,23.91c-4.33.82-7.24,3.63-8.25,8.34-.2,1.71-2.15,1.69-2.07,0,.95-6.11,4.65-9.5,10.32-10.08,1.18-.14,1.42,1.45,0,1.74"/>
  <path class="cls-2" d="M45.72,18.83c-2.05,0-3.99.48-5.74,1.33-1.76-.85-3.7-1.33-5.74-1.33-7.81,0-14.13,6.88-14.13,15.38s6.33,21.08,14.13,21.08c2.04,0,3.99-.86,5.74-2.29,1.75,1.43,3.7,2.29,5.74,2.29,7.81,0,14.13-12.59,14.13-21.08s-6.33-15.38-14.13-15.38"/>
  <path class="cls-4" d="M49.94,15.34c2.75-2.31,4.23-5.57,4.35-8.9-3.3-.45-6.77.44-9.52,2.75-2.75,2.31-4.22,5.57-4.35,8.9,3.3.45,6.77-.44,9.51-2.75M38.76,16.04c.65-1.69.6-3.64-.29-5.39-.89-1.74-2.44-2.93-4.18-3.4-.64,1.69-.6,3.64.29,5.39.89,1.74,2.44,2.93,4.19,3.4Z"/>
  <path class="cls-3" d="M2.15,0h24.71c1.18,0,2.15.97,2.15,2.15v11.71c0,1.18-.97,2.15-2.15,2.15h-.33v3.02s-4.47-3.02-4.47-3.02H2.15c-1.18,0-2.15-.97-2.15-2.15V2.15C0,.97.97,0,2.15,0"/>
  <text class="cls-7" transform="translate(63.05 46.36)"><tspan class="cls-9" x="0" y="0">Me</tspan><tspan class="cls-8" x="38.91" y="0">t</tspan><tspan class="cls-9" x="47.56" y="0">a</tspan><tspan class="cls-6" x="62.33" y="0">Do</tspan><tspan class="cls-5" x="96.46" y="0">c</tspan><tspan class="cls-6" x="109.22" y="0">encia</tspan></text>
  <path class="cls-1" d="M33.69,23.71c-4.33.82-7.24,3.63-8.25,8.34-.2,1.71-2.15,1.69-2.07,0,.95-6.11,4.65-9.5,10.32-10.08,1.18-.14,1.42,1.45,0,1.74"/>
</svg>